<svg width="239" height="60" viewBox="0 0 239 60" fill="none" xmlns="http://www.w3.org/2000/svg">
<path d="M21.543 33.3997L21.5323 33.3895L21.5215 33.3789L21.492 33.3497L21.4778 33.3359C21.4593 33.3175 21.4381 33.2964 21.4125 33.2703L21.412 33.2698C21.386 33.2435 21.3564 33.2131 21.3237 33.1792L21.3046 33.1592C21.2773 33.131 21.2479 33.1 21.2168 33.067L21.1905 33.0389C21.1545 33.0007 21.1167 32.9598 21.0767 32.9163L21.0658 32.9043C21.0205 32.8546 20.9728 32.8019 20.923 32.746L20.9064 32.7268C20.8634 32.6783 20.819 32.6274 20.7733 32.5743L20.7399 32.5354C20.6948 32.4826 20.6487 32.4282 20.6018 32.3717L20.5774 32.3425C20.5207 32.2738 20.4629 32.203 20.4042 32.1291L20.4032 32.1278C20.348 32.0583 20.2922 31.9865 20.236 31.913L20.199 31.8643C20.151 31.8009 20.103 31.7361 20.0548 31.6701L20.0226 31.6261C19.9061 31.4648 19.7904 31.2963 19.6779 31.1221L19.6431 31.0677C19.5983 30.9973 19.5543 30.9264 19.5109 30.8543L19.4737 30.7926C19.4214 30.7042 19.3698 30.6149 19.3201 30.5242L19.3196 30.5233C18.862 29.688 18.5404 28.7721 18.6272 27.9235C18.6391 27.8062 18.6982 27.6685 18.7989 27.513C18.7357 27.4321 18.6651 27.3375 18.588 27.2245C18.422 26.9813 18.2322 26.6651 18.0556 26.2812C18.1001 26.2759 18.146 26.27 18.1927 26.2632C23.1247 25.5497 40.3048 16.5319 40.0514 14.5786C39.9977 14.1633 39.8764 13.8305 39.7067 13.5484C39.7236 13.561 39.7402 13.5734 39.7568 13.5855C39.9657 13.7393 40.1701 13.8828 40.3645 14.0269L40.3678 14.0291C40.5336 14.1516 40.6917 14.2755 40.8383 14.4064L40.8772 14.4422C40.936 14.4963 40.9929 14.5519 41.0477 14.6092L41.0822 14.6447C41.1437 14.7111 41.2019 14.7801 41.2568 14.8525L41.2888 14.8972C41.3328 14.9579 41.3743 15.0213 41.4134 15.0869L41.4487 15.1464C41.4936 15.2277 41.5354 15.312 41.5722 15.4021L41.5874 15.4436C41.6181 15.5228 41.6453 15.6063 41.6691 15.6933L41.6876 15.7591C41.8325 15.7703 41.964 15.7924 42.0797 15.8261L42.0806 15.8266C42.1347 15.8424 42.1864 15.86 42.2339 15.8809C42.2823 15.902 42.3274 15.9256 42.3683 15.9522C45.2152 17.8085 45.4937 20.5174 45.0331 21.2645C44.5726 22.0118 31.1425 24.2966 21.543 33.3997M8.14883 26.8453C7.91639 26.8789 7.66246 26.8791 7.4012 26.8543C7.24146 26.8387 7.07916 26.814 6.91703 26.782C6.83588 26.7657 6.75499 26.7478 6.67451 26.7282C6.19164 26.6105 5.72616 26.4339 5.36341 26.2498C5.18206 26.1575 5.04528 26.0279 4.94259 25.8773C4.84006 25.727 4.77171 25.5561 4.72712 25.3823C4.71238 25.3245 4.70025 25.2663 4.69035 25.2083C4.6013 24.6868 4.69619 24.1907 4.69615 24.1904C4.6501 24.2366 4.60597 24.2956 4.56558 24.3579C4.44443 24.5456 4.35766 24.7652 4.35766 24.7652C4.35766 24.7652 4.35766 24.7652 4.07597 23.9121C4.0583 23.8588 4.04498 23.8061 4.03529 23.7543C3.96779 23.3903 4.08414 23.0639 4.22743 22.8189C4.39118 22.5388 4.59007 22.3652 4.59007 22.3652C4.59007 22.3652 4.54415 22.3973 4.48792 22.4054C4.40373 22.4176 4.29649 22.3761 4.28715 22.0936C4.28528 22.0351 4.29329 21.9713 4.30944 21.9031L4.33451 21.8276C4.34878 21.7816 4.36126 21.736 4.38171 21.687C4.39529 21.6546 4.41447 21.6199 4.43054 21.5863C4.45159 21.5424 4.47046 21.4992 4.49523 21.4537C4.5168 21.4142 4.54311 21.3738 4.56716 21.3337C4.59175 21.2926 4.61435 21.2521 4.64123 21.2107C4.67081 21.1651 4.70383 21.1198 4.73564 21.0741C4.7609 21.0377 4.78463 21.0017 4.81111 20.9657C4.84782 20.9155 4.88659 20.8667 4.92492 20.8175C4.94883 20.7868 4.97184 20.7557 4.99618 20.7256C5.03815 20.6735 5.08078 20.6242 5.1234 20.5743L5.18825 20.4978C5.23231 20.4474 5.27551 20.4013 5.31895 20.3545L5.37279 20.2956L5.37288 20.2962L5.39424 20.2727C5.58404 20.0757 5.86805 19.9125 6.14842 19.7857C6.19212 19.7861 6.2357 19.7828 6.27879 19.7765C6.30043 19.7734 6.32206 19.7694 6.34342 19.7651C6.50763 19.7301 6.65429 19.6539 6.77665 19.5488C6.95149 19.4939 7.06765 19.4659 7.06765 19.4659C7.11507 19.4466 7.16303 19.4358 7.21088 19.4218L7.21801 19.38C7.22715 19.3249 7.23626 19.2704 7.24659 19.2131C7.25518 19.166 7.26489 19.1165 7.27429 19.0678C7.29892 18.9399 7.32601 18.8075 7.35586 18.6699C7.36337 18.6355 7.37023 18.6023 7.37812 18.5671C7.39547 18.4896 7.41441 18.4094 7.4333 18.329C7.44323 18.2865 7.45313 18.2446 7.46359 18.2017C7.46367 18.2014 7.46374 18.2011 7.46374 18.2011C7.77555 17.7719 8.35269 17.351 9.41804 17.1967C9.71622 17.1536 10.0525 17.1312 10.432 17.1356C10.7617 17.1393 11.0727 17.1164 11.3646 17.0741C11.5806 17.0429 11.7859 17.001 11.9802 16.951C12.0593 16.931 12.1387 16.9151 12.2178 16.9036C13.2967 16.7474 14.3539 17.3952 14.6989 18.4508C14.6993 18.4519 14.6997 18.453 14.7001 18.4541C14.5794 18.4291 14.456 18.4136 14.3311 18.4083C14.1953 18.4029 14.0577 18.4098 13.9197 18.4298C13.8405 18.4412 13.7613 18.4571 13.6821 18.4772C13.4878 18.5272 13.2825 18.569 13.0665 18.6003C12.7748 18.6425 12.4636 18.6654 12.1339 18.6617C11.7545 18.6573 11.4184 18.6797 11.1203 18.7228C9.9481 18.8925 9.36806 19.3854 9.08121 19.8568C9.55639 20.1699 9.87684 20.5132 9.87684 20.5132L9.79773 19.8455C9.79773 19.8455 10.5419 21.1005 10.8616 22.246L10.866 22.2648L10.8662 22.2645C10.8767 22.3029 10.8808 22.3351 10.8898 22.3719C10.9123 22.4652 10.9355 22.5591 10.9492 22.6436L10.9561 22.707C10.9693 22.8009 10.9805 22.8926 10.9844 22.975L10.9844 22.9892C11.0052 23.4934 10.875 23.7814 10.8331 23.859L10.82 23.8821L11.0482 23.6388C11.0482 23.6388 11.1502 23.9788 11.1232 24.4297C11.0997 24.8242 10.9774 25.3037 10.6015 25.7138C10.5478 25.7724 10.489 25.8297 10.4245 25.8851C10.1666 26.1065 9.91642 26.2446 9.68618 26.327C9.57105 26.3685 9.46096 26.3959 9.35733 26.413C9.3458 26.415 9.33425 26.4166 9.32279 26.4183C9.23213 26.4314 9.1467 26.4367 9.06763 26.4363C8.71169 26.4353 8.48461 26.3237 8.48461 26.3237L8.83919 26.5879C8.65038 26.7254 8.41344 26.807 8.14883 26.8453M38.4087 12.3163C37.777 11.8629 37.0717 11.3695 36.4924 10.4882C36.4727 10.4583 36.452 10.4279 36.4305 10.3979C37.2221 10.927 37.8445 11.4818 38.1944 12.0143C38.2642 12.1203 38.3356 12.2208 38.4087 12.3163Z" fill="black"/>
<path d="M5.36781 17.9397C5.36781 17.9397 4.1984 18.2224 3.6944 18.7465C3.19036 19.2706 2.57177 20.0963 2.5873 20.5674C2.60275 21.0384 2.89022 20.839 2.89022 20.839C2.89022 20.839 2.09443 21.5327 2.37612 22.3858C2.65782 23.239 2.65782 23.239 2.65782 23.239C2.65782 23.239 2.8122 22.8486 2.99631 22.6642C2.99631 22.6642 2.69626 24.2326 3.66357 24.7235C4.63088 25.2145 6.32864 25.6523 7.13935 25.0617L6.78476 24.7975C6.78476 24.7975 7.69306 25.2444 8.72463 24.3589C9.75631 23.4733 9.34837 22.1126 9.34837 22.1126L9.12006 22.356C9.12006 22.356 9.46849 21.8186 9.16176 20.7198C8.84204 19.5743 8.09788 18.3193 8.09788 18.3193L8.177 18.987C8.177 18.987 6.70499 17.398 5.36781 17.9397" fill="white"/>
<path d="M7.92147 22.4533C6.77262 23.2503 5.42594 22.6669 4.79781 21.7271C4.85581 21.9518 4.67786 22.3043 5.05623 22.4291C3.4074 22.1337 3.55805 20.2797 3.67307 18.7694C3.17298 19.2944 2.57204 20.1031 2.5873 20.5674C2.60275 21.0384 2.89022 20.839 2.89022 20.839C2.89022 20.839 2.09443 21.5327 2.37612 22.3858C2.65782 23.239 2.65782 23.239 2.65782 23.239C2.65782 23.239 2.8122 22.8486 2.99631 22.6642C2.99631 22.6642 2.69626 24.2326 3.66357 24.7235C4.63088 25.2145 6.32864 25.6523 7.13935 25.0617L6.78476 24.7975C6.78476 24.7975 7.69306 25.2444 8.72463 24.3589C9.75631 23.4733 9.34837 22.1126 9.34837 22.1126L9.12006 22.356C9.12006 22.356 9.46377 21.8244 9.1664 20.7383C8.76784 21.0702 8.29231 21.3018 7.76579 21.378C8.90614 21.6522 7.42802 22.0857 7.92147 22.4533" fill="#ECEDD4"/>
<path d="M4.7989 21.7269C4.7861 21.6771 4.7618 21.6333 4.71664 21.6C4.7419 21.6433 4.77067 21.6849 4.7989 21.7269Z" fill="#ECEDD4"/>
<path d="M36.4957 10.488C35.5178 9.00004 32.4132 7.33727 29.4329 6.54808C27.9339 4.70099 22.3657 3.45488 20.0533 3.35424C18.8136 3.30034 14.2412 3.75675 10.836 6.59161C7.43079 9.42675 4.91814 18.4267 5.4952 19.3715C5.73567 19.765 6.05539 19.8269 6.34667 19.7649C6.75665 19.6775 7.0571 19.3335 7.14457 18.9244C7.28386 18.2738 7.88831 17.1065 10.4353 17.1354C11.0088 17.1416 11.5266 17.0681 11.9834 16.9508C13.1409 16.6544 14.3319 17.3178 14.7022 18.4506C14.8028 18.7583 14.9152 19.0466 15.029 19.3084C15.447 20.2701 15.6909 21.2956 15.754 22.342C15.9051 24.8443 17.3566 26.2867 17.3566 26.2867C20.6642 26.8323 40.3256 16.6668 40.0546 14.5784C39.7839 12.4897 37.8135 12.4928 36.4957 10.488Z" fill="#ED1E28"/>
<path d="M37.8268 11.8856L37.802 11.9089C32.3253 16.6541 25.3058 19.8663 18.6217 20.8341C16.6811 21.115 18.3079 17.1468 19.5993 15.4228C18.399 16.2553 17.5389 17.9167 16.3362 17.2128C13.6531 15.4054 14.6331 11.5311 13.1191 8.67644C13.6795 12.5475 10.45 16.089 7.30675 15.6658C6.88699 15.577 6.50308 15.4403 6.15088 15.2644C5.53013 17.3174 5.26373 18.9926 5.49515 19.3715C5.73562 19.7651 6.05534 19.8269 6.34662 19.7649C6.7566 19.6775 7.05706 19.3335 7.14453 18.9244C7.28382 18.2738 7.88826 17.1065 10.4352 17.1354C11.0088 17.1419 11.5266 17.0681 11.9834 16.9508C13.1409 16.6544 14.3318 17.3178 14.7021 18.4506C14.8028 18.7583 14.9151 19.0466 15.0289 19.3087C15.447 20.2701 15.6908 21.2956 15.7539 22.342C15.9051 24.8443 17.3565 26.2867 17.3565 26.2867C20.6642 26.8323 40.3255 16.6668 40.0546 14.5784C39.867 13.1314 38.8638 12.6876 37.8268 11.8856" fill="#E01D26"/>
<path d="M19.8432 31.8735C19.8432 31.8735 16.6764 28.8534 16.9274 26.3972C17.1783 23.9411 37.822 12.5695 40.6685 14.4259C43.5154 16.2823 43.7939 18.9912 43.3333 19.7382C42.8728 20.4855 29.4427 22.7704 19.8432 31.8735" fill="white"/>
<path d="M40.6674 14.4259C40.586 14.3727 40.4882 14.3319 40.3787 14.2999C41.1287 15.3044 41.6852 16.4661 41.212 17.6632C40.7691 19.3155 38.3804 18.5269 36.9495 19.6416C37.1723 19.6094 37.6179 19.5449 37.8407 19.5126C35.6475 21.6449 32.1126 20.7954 29.9516 23.1503C30.1744 23.118 30.62 23.0535 30.8428 23.0212C28.7759 24.4546 25.3054 24.0499 23.9712 25.8309C22.5428 28.0786 20.0089 29.1727 17.6187 28.9971C18.4857 30.5797 19.8421 31.8735 19.8421 31.8735C29.4416 22.7703 42.8717 20.4855 43.3322 19.7382C43.7927 18.9911 43.5143 16.2823 40.6674 14.4259" fill="#ECEDD4"/>
<path d="M20.6543 7.58545C18.6278 7.87857 16.5692 7.56746 17.058 6.12267C17.4574 4.94194 18.4062 4.45035 19.4455 4.29987C21.2248 4.04226 23.2689 4.78559 23.2689 4.78559C25.5357 5.97824 23.1185 7.22866 20.6543 7.58545" fill="#EE2234"/>
<path d="M124.652 44.9524C122.939 44.9524 121.387 44.5834 119.994 43.8453C118.618 43.0911 117.529 42.0562 116.729 40.7404C115.945 39.4086 115.553 37.9083 115.553 36.2396C115.553 34.5708 115.945 33.0785 116.729 31.7628C117.529 30.431 118.618 29.396 119.994 28.6579C121.387 27.9038 122.947 27.5267 124.676 27.5267C126.132 27.5267 127.445 27.7834 128.613 28.2969C129.798 28.8104 130.79 29.5485 131.59 30.5112L129.094 32.8218C127.957 31.506 126.549 30.8482 124.868 30.8482C123.828 30.8482 122.899 31.0808 122.083 31.5462C121.267 31.9954 120.627 32.6293 120.162 33.4476C119.714 34.2659 119.49 35.1966 119.49 36.2396C119.49 37.2825 119.714 38.2132 120.162 39.0315C120.627 39.8499 121.267 40.4917 122.083 40.957C122.899 41.4063 123.828 41.6309 124.868 41.6309C126.549 41.6309 127.957 40.965 129.094 39.6332L131.59 41.9438C130.79 42.9226 129.798 43.6688 128.613 44.1822C127.429 44.6957 126.108 44.9524 124.652 44.9524Z" fill="black"/>
<path d="M141.543 44.9524C139.142 44.9524 137.269 44.2865 135.925 42.9547C134.596 41.6229 133.932 39.7215 133.932 37.2504V27.8155H137.822V37.106C137.822 40.1226 139.07 41.6309 141.567 41.6309C142.783 41.6309 143.712 41.2699 144.352 40.5479C144.992 39.8097 145.312 38.6625 145.312 37.106V27.8155H149.154V37.2504C149.154 39.7215 148.481 41.6229 147.137 42.9547C145.808 44.2865 143.944 44.9524 141.543 44.9524Z" fill="black"/>
<path d="M165.337 35.9026C166.298 36.2075 167.05 36.7209 167.594 37.443C168.138 38.149 168.41 39.0235 168.41 40.0665C168.41 41.5427 167.834 42.6819 166.682 43.4842C165.545 44.2705 163.881 44.6636 161.688 44.6636H152.997V27.8155H161.208C163.257 27.8155 164.825 28.2086 165.914 28.9949C167.018 29.7811 167.57 30.8482 167.57 32.196C167.57 33.0143 167.37 33.7444 166.97 34.3863C166.586 35.0281 166.042 35.5335 165.337 35.9026ZM156.862 30.7519V34.7232H160.728C161.688 34.7232 162.416 34.5547 162.913 34.2178C163.409 33.8808 163.657 33.3834 163.657 32.7255C163.657 32.0676 163.409 31.5783 162.913 31.2573C162.416 30.9204 161.688 30.7519 160.728 30.7519H156.862ZM161.4 41.7272C162.424 41.7272 163.193 41.5587 163.705 41.2218C164.233 40.8848 164.497 40.3633 164.497 39.6573C164.497 38.2613 163.465 37.5633 161.4 37.5633H156.862V41.7272H161.4Z" fill="black"/>
<path d="M182.423 41.0533H174.62L173.132 44.6636H169.146L176.637 27.8155H180.478L187.993 44.6636H183.912L182.423 41.0533ZM181.199 38.0928L178.534 31.6424L175.869 38.0928H181.199Z" fill="black"/>
<path d="M192.374 30.9926H186.996V27.8155H201.641V30.9926H196.263V44.6636H192.374V30.9926Z" fill="black"/>
<path d="M211.638 44.9524C209.894 44.9524 208.317 44.5753 206.909 43.8212C205.516 43.067 204.42 42.0321 203.619 40.7163C202.835 39.3845 202.443 37.8923 202.443 36.2396C202.443 34.5868 202.835 33.1026 203.619 31.7868C204.42 30.455 205.516 29.4121 206.909 28.6579C208.317 27.9038 209.894 27.5267 211.638 27.5267C213.383 27.5267 214.951 27.9038 216.344 28.6579C217.736 29.4121 218.833 30.455 219.633 31.7868C220.433 33.1026 220.833 34.5868 220.833 36.2396C220.833 37.8923 220.433 39.3845 219.633 40.7163C218.833 42.0321 217.736 43.067 216.344 43.8212C214.951 44.5753 213.383 44.9524 211.638 44.9524ZM211.638 41.6309C212.631 41.6309 213.527 41.4063 214.327 40.957C215.127 40.4917 215.752 39.8499 216.2 39.0315C216.664 38.2132 216.896 37.2825 216.896 36.2396C216.896 35.1966 216.664 34.2659 216.2 33.4476C215.752 32.6293 215.127 31.9954 214.327 31.5462C213.527 31.0808 212.631 30.8482 211.638 30.8482C210.646 30.8482 209.75 31.0808 208.949 31.5462C208.149 31.9954 207.517 32.6293 207.053 33.4476C206.604 34.2659 206.38 35.1966 206.38 36.2396C206.38 37.2825 206.604 38.2132 207.053 39.0315C207.517 39.8499 208.149 40.4917 208.949 40.957C209.75 41.4063 210.646 41.6309 211.638 41.6309Z" fill="black"/>
<path d="M234.464 44.6636L231.223 39.9702H231.031H227.646V44.6636H223.757V27.8155H231.031C232.52 27.8155 233.808 28.0642 234.896 28.5616C236.001 29.0591 236.849 29.7651 237.441 30.6797C238.034 31.5943 238.33 32.6774 238.33 33.929C238.33 35.1805 238.026 36.2636 237.417 37.1782C236.825 38.0768 235.977 38.7668 234.872 39.2481L238.642 44.6636H234.464ZM234.392 33.929C234.392 32.9823 234.088 32.2602 233.48 31.7628C232.872 31.2493 231.983 30.9926 230.815 30.9926H227.646V36.8653H230.815C231.983 36.8653 232.872 36.6086 233.48 36.0951C234.088 35.5817 234.392 34.8596 234.392 33.929Z" fill="black"/>
<path d="M30 27.8409H33.8833V44.633H30V27.8409Z" fill="black"/>
<path d="M41.3413 31.0075H35.9718V27.8409H50.5941V31.0075H45.2246V44.633H41.3413V31.0075Z" fill="black"/>
<path d="M74.9883 27.8409H78.877V44.633H74.9883V27.8409Z" fill="black"/>
<path d="M98.2754 27.8409V44.633H95.0828L86.7054 34.4378V44.633H82.8647V27.8409H86.0812L94.4347 38.0361V27.8409H98.2754Z" fill="black"/>
<path fill-rule="evenodd" clip-rule="evenodd" d="M76.649 20.7116C78.0925 20.7116 79.2629 21.882 79.2629 23.3255C79.2629 24.769 78.0925 25.9394 76.649 25.9394C75.2056 25.9394 74.0352 24.769 74.0352 23.3255C74.0352 21.882 75.2056 20.7116 76.649 20.7116Z" fill="#FF0808"/>
<path fill-rule="evenodd" clip-rule="evenodd" d="M55.9899 33.3865C57.4775 33.3865 58.683 34.5566 58.683 36.0004C58.683 37.4442 57.4775 38.6143 55.9899 38.6143C54.5024 38.6143 53.2969 37.4442 53.2969 36.0004C53.2969 34.5566 54.5024 33.3865 55.9899 33.3865Z" fill="black"/>
<path fill-rule="evenodd" clip-rule="evenodd" d="M86.6367 58.0001C98.787 58.0001 108.637 48.1503 108.637 36.0001C108.637 23.8498 98.787 14.0001 86.6367 14.0001C74.4865 14.0001 64.6367 23.8498 64.6367 36.0001C64.6367 48.1503 74.4865 58.0001 86.6367 58.0001ZM86.6367 60.0001C99.8916 60.0001 110.637 49.2549 110.637 36.0001C110.637 22.7452 99.8916 12.0001 86.6367 12.0001C73.3819 12.0001 62.6367 22.7452 62.6367 36.0001C62.6367 49.2549 73.3819 60.0001 86.6367 60.0001Z" fill="black"/>
</svg>
